HIERARCHY
ROOT joint_0
{
	OFFSET 0.000000 0.000000 0.000000
	CHANNELS 6 Xposition Yposition Zposition Zrotation Yrotation Xrotation 
	JOINT joint_1
	{
		OFFSET 6.004005 -1.946999 100.587036
		CHANNELS 3 Zrotation Yrotation Xrotation
		JOINT joint_2
		{
			OFFSET -4.601006 -0.824997 91.925903
			CHANNELS 3 Zrotation Yrotation Xrotation
			JOINT joint_3
			{
				OFFSET -5.420998 -1.130005 91.774048
				CHANNELS 3 Zrotation Yrotation Xrotation
				JOINT joint_4
				{
					OFFSET 4.308998 -3.777992 123.473999
					CHANNELS 3 Zrotation Yrotation Xrotation
					JOINT joint_5
					{
						OFFSET 25.565002 -6.305008 79.437988
						CHANNELS 3 Zrotation Yrotation Xrotation
						End Site
						{
							OFFSET 0.000000 0.000000 0.000000
						}
					}
				}
				JOINT joint_6
				{
					OFFSET -1.750000 -28.655998 68.557983
					CHANNELS 3 Zrotation Yrotation Xrotation
					JOINT joint_7
					{
						OFFSET -17.692001 -116.544006 -17.244019
						CHANNELS 3 Zrotation Yrotation Xrotation
						JOINT joint_8
						{
							OFFSET 27.063004 -23.640991 -266.895020
							CHANNELS 3 Zrotation Yrotation Xrotation
							JOINT joint_9
							{
								OFFSET 40.722000 -15.761017 -232.488953
								CHANNELS 3 Zrotation Yrotation Xrotation
								End Site
								{
									OFFSET 0.000000 0.000000 0.000000
								}
							}
						}
					}
				}
				JOINT joint_10
				{
					OFFSET 6.593002 24.457001 69.892944
					CHANNELS 3 Zrotation Yrotation Xrotation
					JOINT joint_11
					{
						OFFSET 24.311996 114.920002 -19.872925
						CHANNELS 3 Zrotation Yrotation Xrotation
						JOINT joint_12
						{
							OFFSET 21.081001 15.319000 -268.037964
							CHANNELS 3 Zrotation Yrotation Xrotation
							JOINT joint_13
							{
								OFFSET 27.794006 -8.947001 -234.744080
								CHANNELS 3 Zrotation Yrotation Xrotation
								End Site
								{
									OFFSET 0.000000 0.000000 0.000000
								}
							}
						}
					}
				}
			}
		}
	}
	JOINT joint_14
	{
		OFFSET -6.627998 -80.520004 -98.790039
		CHANNELS 3 Zrotation Yrotation Xrotation
		JOINT joint_15
		{
			OFFSET -43.638000 -13.751999 -502.538971
			CHANNELS 3 Zrotation Yrotation Xrotation
			JOINT joint_16
			{
				OFFSET -39.532999 -9.912994 -398.071007
				CHANNELS 3 Zrotation Yrotation Xrotation
				JOINT joint_17
				{
					OFFSET 174.940004 -34.660995 -75.688002
					CHANNELS 3 Zrotation Yrotation Xrotation
					End Site
					{
						OFFSET 0.000000 0.000000 0.000000
					}
				}
			}
		}
	}
	JOINT joint_18
	{
		OFFSET 12.591003 79.842003 -98.765015
		CHANNELS 3 Zrotation Yrotation Xrotation
		JOINT joint_19
		{
			OFFSET -39.080002 -1.297001 -503.101013
			CHANNELS 3 Zrotation Yrotation Xrotation
			JOINT joint_20
			{
				OFFSET -51.570000 -0.514000 -396.815987
				CHANNELS 3 Zrotation Yrotation Xrotation
				JOINT joint_21
				{
					OFFSET 178.987999 -11.521999 -73.244003
					CHANNELS 3 Zrotation Yrotation Xrotation
					End Site
					{
						OFFSET 0.000000 0.000000 0.000000
					}
				}
			}
		}
	}
}
MOTION
Frames: 15
Frame Time: 0.016667
-1915.735107 990.149719 1096.463013 0.056980 -0.222275 -0.192313 0.574317 1.307355 0.080435 0.576947 -0.220313 0.013831 0.583456 0.255557 0.000663 -0.014872 -2.410526 -0.566578 0.000000 0.000000 0.000000 3.561996 0.266577 1.214966 -0.117568 0.776767 1.454008 -0.849070 3.751980 -3.166342 0.000000 0.000000 0.000000 -1.326038 -1.177013 1.200862 0.087455 0.003893 -3.228143 0.905068 -0.581831 7.624404 0.000000 0.000000 0.000000 -0.953731 -0.881164 -2.399565 -1.331028 -0.457523 1.583703 -1.196681 1.378010 -0.243166 0.000000 0.000000 0.000000 0.248252 -2.848851 5.518053 0.695601 1.609675 -0.292840 0.623175 0.411465 0.278632 0.000000 0.000000 0.000000 
-1915.640503 990.116516 1096.449951 0.061964 -0.211079 -0.192603 0.574807 1.322545 0.088763 0.577034 -0.224352 0.010992 0.583968 0.259242 0.002738 -0.020719 -2.429037 -0.553243 0.000000 0.000000 0.000000 3.570591 0.268951 1.215906 -0.118919 0.781211 1.451157 -0.850826 3.756069 -3.173309 0.000000 0.000000 0.000000 -1.313581 -1.196042 1.178583 0.084279 -0.019802 -3.241116 0.904572 -0.575887 7.624839 0.000000 0.000000 0.000000 -0.955260 -0.887769 -2.398705 -1.333012 -0.456979 1.586961 -1.198241 1.377428 -0.243956 0.000000 0.000000 0.000000 0.245441 -2.860810 5.523143 0.693470 1.620208 -0.298207 0.620552 0.403425 0.277055 0.000000 0.000000 0.000000 
-1915.556885 990.084106 1096.437988 0.069821 -0.201914 -0.192891 0.576499 1.340659 0.098473 0.578321 -0.228002 0.008775 0.585635 0.263743 0.004636 -0.026448 -2.447955 -0.540413 0.000000 0.000000 0.000000 3.572817 0.271550 1.217052 -0.120492 0.785482 1.445139 -0.852648 3.762588 -3.179548 0.000000 0.000000 0.000000 -1.306763 -1.215316 1.157372 0.081146 -0.042141 -3.255941 0.903884 -0.572163 7.622939 0.000000 0.000000 0.000000 -0.957641 -0.892705 -2.397562 -1.335719 -0.455810 1.589543 -1.200522 1.376407 -0.245144 0.000000 0.000000 0.000000 0.241630 -2.872763 5.527996 0.690296 1.633283 -0.303112 0.617003 0.394577 0.275050 0.000000 0.000000 0.000000 
-1915.482178 990.048523 1096.427002 0.082395 -0.196684 -0.192626 0.580966 1.364966 0.108431 0.582397 -0.232113 0.006145 0.590158 0.268931 0.006951 -0.031583 -2.467801 -0.529726 0.000000 0.000000 0.000000 3.558884 0.275227 1.221315 -0.122495 0.789858 1.433359 -0.853928 3.766782 -3.183985 0.000000 0.000000 0.000000 -1.315742 -1.234489 1.140280 0.078525 -0.060149 -3.273305 0.902978 -0.574667 7.616674 0.000000 0.000000 0.000000 -0.961458 -0.892232 -2.395852 -1.339396 -0.456901 1.590415 -1.203991 1.376483 -0.246626 0.000000 0.000000 0.000000 0.236173 -2.883199 5.531617 0.685273 1.650185 -0.306349 0.611924 0.383878 0.272307 0.000000 0.000000 0.000000 
-1915.418457 990.011719 1096.416992 0.098564 -0.194749 -0.192208 0.587419 1.395504 0.119435 0.588471 -0.237202 0.003824 0.596680 0.275121 0.009067 -0.036309 -2.489499 -0.520827 0.000000 0.000000 0.000000 3.533886 0.279263 1.227653 -0.124870 0.794112 1.416433 -0.854982 3.771482 -3.186997 0.000000 0.000000 0.000000 -1.334130 -1.254094 1.126296 0.076126 -0.075573 -3.293947 0.901903 -0.581951 7.607363 0.000000 0.000000 0.000000 -0.966477 -0.887960 -2.393485 -1.343936 -0.458954 1.590012 -1.208445 1.376944 -0.248457 0.000000 0.000000 0.000000 0.229197 -2.892624 5.534463 0.678554 1.670375 -0.307902 0.605461 0.371326 0.268885 0.000000 0.000000 0.000000 
-1915.358765 989.971863 1096.406982 0.115814 -0.192844 -0.191458 0.593985 1.422950 0.129881 0.594699 -0.242194 0.002037 0.603278 0.280451 0.010625 -0.040326 -2.506624 -0.512969 0.000000 0.000000 0.000000 3.505986 0.285497 1.233138 -0.127197 0.799709 1.401395 -0.856198 3.777039 -3.190573 0.000000 0.000000 0.000000 -1.355509 -1.270753 1.112401 0.073999 -0.088020 -3.311983 0.900854 -0.587781 7.598491 0.000000 0.000000 0.000000 -0.971897 -0.884467 -2.391071 -1.348903 -0.459602 1.589160 -1.213311 1.377242 -0.250498 0.000000 0.000000 0.000000 0.221908 -2.902813 5.537596 0.671638 1.691508 -0.310588 0.598670 0.358559 0.265316 0.000000 0.000000 0.000000 
-1915.298828 989.922974 1096.396973 0.132278 -0.188478 -0.189866 0.598127 1.439675 0.136698 0.598707 -0.244616 0.001922 0.607401 0.283887 0.010889 -0.043558 -2.515681 -0.505440 0.000000 0.000000 0.000000 3.486033 0.294119 1.236582 -0.129175 0.807330 1.394083 -0.858310 3.785873 -3.197604 0.000000 0.000000 0.000000 -1.370349 -1.282249 1.097038 0.072159 -0.098341 -3.322263 0.899832 -0.588020 7.591451 0.000000 0.000000 0.000000 -0.977253 -0.885560 -2.388936 -1.354108 -0.456712 1.588296 -1.218330 1.377663 -0.252580 0.000000 0.000000 0.000000 0.215276 -2.915660 5.541792 0.665701 1.712665 -0.316512 0.592405 0.346119 0.261980 0.000000 0.000000 0.000000 
-1915.241699 989.867065 1096.385986 0.149489 -0.182898 -0.187930 0.601607 1.449945 0.142250 0.602076 -0.246131 0.001615 0.610848 0.286002 0.010856 -0.046373 -2.518259 -0.497526 0.000000 0.000000 0.000000 3.466516 0.305462 1.238221 -0.130915 0.816626 1.391987 -0.860947 3.796725 -3.206600 0.000000 0.000000 0.000000 -1.385014 -1.289909 1.081409 0.070662 -0.105923 -3.327511 0.898809 -0.585702 7.585047 0.000000 0.000000 0.000000 -0.983103 -0.889429 -2.386426 -1.359909 -0.451117 1.586874 -1.223905 1.377880 -0.254942 0.000000 0.000000 0.000000 0.208432 -2.930696 5.547179 0.659845 1.735229 -0.325024 0.585896 0.333251 0.258518 0.000000 0.000000 0.000000 
-1915.183716 989.814148 1096.375977 0.162363 -0.178026 -0.185223 0.605096 1.457686 0.146673 0.605545 -0.248744 0.002924 0.614271 0.288540 0.010014 -0.048178 -2.516805 -0.491683 0.000000 0.000000 0.000000 3.447487 0.317213 1.240410 -0.132779 0.826792 1.388003 -0.863263 3.806839 -3.214370 0.000000 0.000000 0.000000 -1.398180 -1.294304 1.064667 0.069132 -0.110914 -3.331932 0.898127 -0.578792 7.582735 0.000000 0.000000 0.000000 -0.987331 -0.893159 -2.385418 -1.364283 -0.445353 1.586100 -1.228065 1.378557 -0.256604 0.000000 0.000000 0.000000 0.203041 -2.942800 5.551648 0.655376 1.754405 -0.333655 0.580674 0.322270 0.255699 0.000000 0.000000 0.000000 
-1915.118896 989.772339 1096.364014 0.167960 -0.175199 -0.181711 0.608538 1.462931 0.152366 0.608834 -0.249869 0.003148 0.617557 0.289661 0.009555 -0.048079 -2.509836 -0.490268 0.000000 0.000000 0.000000 3.429273 0.328886 1.242260 -0.134727 0.837618 1.379652 -0.864494 3.814180 -3.217799 0.000000 0.000000 0.000000 -1.407387 -1.294972 1.048202 0.067317 -0.111822 -3.341229 0.898168 -0.567167 7.587860 0.000000 0.000000 0.000000 -0.989041 -0.894549 -2.386998 -1.366395 -0.440723 1.586848 -1.229933 1.379022 -0.257319 0.000000 0.000000 0.000000 0.200051 -2.947672 5.554550 0.653194 1.765734 -0.341861 0.577644 0.314592 0.253979 0.000000 0.000000 0.000000 
-1915.051270 989.736633 1096.350952 0.167664 -0.173929 -0.177230 0.612086 1.466723 0.157775 0.612203 -0.252647 0.003508 0.620973 0.292220 0.009240 -0.046621 -2.499368 -0.492134 0.000000 0.000000 0.000000 3.411652 0.340287 1.244077 -0.136696 0.848775 1.367874 -0.864857 3.819823 -3.217523 0.000000 0.000000 0.000000 -1.413907 -1.292521 1.031212 0.065361 -0.109692 -3.352985 0.898884 -0.551263 7.599975 0.000000 0.000000 0.000000 -0.988638 -0.894653 -2.390571 -1.366584 -0.436287 1.588265 -1.229886 1.379170 -0.257271 0.000000 0.000000 0.000000 0.198998 -2.947108 5.556195 0.652882 1.771052 -0.350167 0.576349 0.309693 0.253141 0.000000 0.000000 0.000000 
-1914.983643 989.703857 1096.338013 0.164390 -0.173935 -0.172597 0.614894 1.468333 0.164680 0.614695 -0.253865 0.002502 0.623626 0.294291 0.010013 -0.044403 -2.489036 -0.496367 0.000000 0.000000 0.000000 3.395930 0.351257 1.246295 -0.138856 0.860252 1.353581 -0.864871 3.823398 -3.216428 0.000000 0.000000 0.000000 -1.418815 -1.287749 1.013963 0.063462 -0.105744 -3.363882 0.899570 -0.533497 7.611808 0.000000 0.000000 0.000000 -0.987371 -0.893215 -2.394873 -1.365930 -0.433157 1.590202 -1.229058 1.380389 -0.256674 0.000000 0.000000 0.000000 0.199057 -2.944812 5.557137 0.653564 1.776583 -0.357801 0.576087 0.304814 0.252723 0.000000 0.000000 0.000000 
-1914.919067 989.674133 1096.322021 0.159241 -0.176265 -0.167979 0.616565 1.471704 0.174232 0.615893 -0.254902 0.000386 0.625095 0.295065 0.011790 -0.041461 -2.480661 -0.503329 0.000000 0.000000 0.000000 3.381248 0.362063 1.246844 -0.141034 0.871682 1.337838 -0.864355 3.823668 -3.214160 0.000000 0.000000 0.000000 -1.422918 -1.281019 0.998073 0.061734 -0.099842 -3.373897 0.899904 -0.516170 7.619537 0.000000 0.000000 0.000000 -0.985478 -0.888564 -2.399358 -1.364475 -0.432385 1.591976 -1.227576 1.382642 -0.255591 0.000000 0.000000 0.000000 0.200007 -2.941549 5.556914 0.654872 1.786016 -0.363355 0.576717 0.296705 0.252458 0.000000 0.000000 0.000000 
-1914.855469 989.647278 1096.305054 0.151247 -0.180141 -0.163467 0.616742 1.474068 0.186392 0.615432 -0.255961 -0.002602 0.625007 0.297448 0.014000 -0.037644 -2.475119 -0.513710 0.000000 0.000000 0.000000 3.370452 0.371724 1.247148 -0.143342 0.882936 1.319377 -0.863301 3.820771 -3.210568 0.000000 0.000000 0.000000 -1.424081 -1.272269 0.982877 0.060113 -0.092560 -3.382496 0.899910 -0.498260 7.623728 0.000000 0.000000 0.000000 -0.982885 -0.881771 -2.404056 -1.362222 -0.433713 1.593940 -1.225430 1.386556 -0.253892 0.000000 0.000000 0.000000 0.201964 -2.936937 5.556073 0.657043 1.797112 -0.367888 0.578309 0.287562 0.252517 0.000000 0.000000 0.000000 
-1914.796021 989.620422 1096.287964 0.142586 -0.184792 -0.159324 0.617062 1.475613 0.198193 0.615132 -0.256555 -0.005530 0.625059 0.298532 0.016363 -0.034255 -2.470735 -0.523060 0.000000 0.000000 0.000000 3.360408 0.381753 1.247428 -0.145596 0.894430 1.302407 -0.862485 3.818660 -3.207903 0.000000 0.000000 0.000000 -1.425696 -1.262767 0.968056 0.058523 -0.084248 -3.391640 0.900072 -0.479926 7.629355 0.000000 0.000000 0.000000 -0.980150 -0.874545 -2.408486 -1.359812 -0.434787 1.596076 -1.223084 1.389829 -0.252234 0.000000 0.000000 0.000000 0.204174 -2.932317 5.555230 0.659401 1.809744 -0.371591 0.580192 0.277654 0.252644 0.000000 0.000000 0.000000 
